<svg xmlns="http://www.w3.org/2000/svg" viewBox="0 0 400 300" width="406" height="306" class="illustration styles_illustrationTablet__1DWOa"><g id="_183_java_outline" data-name="#183_java_outline"><path d="M290.81,191.38a2.48,2.48,0,0,1-2.36-1.7,2.43,2.43,0,0,1,1.6-3.07c12.2-3.86,26.34-13,28.54-23.87.49-2.37.46-5.71-2.39-8.1-7.71-6.45-17.9,3.78-18.33,4.22a2.51,2.51,0,0,1-3.5.07,2.42,2.42,0,0,1-.08-3.45c4.75-4.87,16.1-12.1,25.12-4.56,3.66,3.07,5.1,7.6,4,12.78-2.61,12.89-17.9,23.13-31.89,27.56A2.51,2.51,0,0,1,290.81,191.38Z" fill="#ffbc0e"></path><path d="M290.81,192.38A3.46,3.46,0,0,1,287.5,190a3.34,3.34,0,0,1,.21-2.61,3.42,3.42,0,0,1,2-1.72c11.93-3.78,25.74-12.62,27.86-23.12.43-2.11.42-5.06-2.05-7.13-7-5.85-16.57,3.74-17,4.15a3.5,3.5,0,0,1-4.9.09,3.35,3.35,0,0,1-1.07-2.41,3.39,3.39,0,0,1,1-2.46c5-5.1,16.89-12.64,26.47-4.62,4,3.31,5.51,8.18,4.39,13.74-2.69,13.29-18.3,23.8-32.57,28.31A3.51,3.51,0,0,1,290.81,192.38Zm19.66-40.86a9.67,9.67,0,0,1,6.37,2.36c3.23,2.7,3.27,6.42,2.74,9.06-2.29,11.29-16.76,20.68-29.23,24.62a1.42,1.42,0,0,0-.86.73,1.36,1.36,0,0,0-.09,1.08,1.49,1.49,0,0,0,1.87.93C305,186,320,176,322.48,163.5c1-4.8-.35-9-3.71-11.81-8.46-7.07-19.24-.16-23.76,4.49a1.42,1.42,0,0,0,0,2,1.52,1.52,0,0,0,2.11,0C297.5,157.81,303.8,151.52,310.47,151.52Z" fill="#093f68"></path><path d="M230.87,141.7h75.19l-6.14,42.39a25.34,25.34,0,0,1-25.07,21.75H262.07A25.36,25.36,0,0,1,237,184.09Z" fill="#ffbc0e"></path><path d="M274.85,206.84H262.07A26.5,26.5,0,0,1,236,184.23l-6.13-42.38a1,1,0,0,1,1-1.15h75.19a1,1,0,0,1,1,1.15l-6.14,42.38A26.48,26.48,0,0,1,274.85,206.84ZM232,142.7,238,184a24.49,24.49,0,0,0,24.08,20.89h12.78A24.49,24.49,0,0,0,298.94,184l6-41.25Z" fill="#093f68"></path><path d="M260.61,110.13v104c0,4.58-3.25,8.29-7.25,8.29H103.46c-4,0-7.25-3.71-7.25-8.29v-104c0-4.57,3.24-8.29,7.25-8.29h149.9C257.36,101.84,260.61,105.56,260.61,110.13Z" fill="#FEC260"></path><path d="M253.36,223.41H103.46c-4.55,0-8.25-4.17-8.25-9.29v-104c0-5.12,3.7-9.29,8.25-9.29h149.9c4.55,0,8.26,4.17,8.26,9.29v104C261.62,219.24,257.91,223.41,253.36,223.41ZM103.46,102.84c-3.45,0-6.25,3.27-6.25,7.29v104c0,4,2.8,7.29,6.25,7.29h149.9c3.45,0,6.26-3.27,6.26-7.29v-104c0-4-2.81-7.29-6.26-7.29Z" fill="#093f68"></path><path d="M156.64,140.79H121.88a3,3,0,1,1,0-6h34.76a3,3,0,0,1,0,6Z" fill="#093f68"></path><path d="M166.79,143.86a1.64,1.64,0,0,1-.77-1.47v-3.26a.92.92,0,0,0-.33-.84,2.34,2.34,0,0,0-1.24-.23v-1.59a2.36,2.36,0,0,0,1.24-.22,1,1,0,0,0,.33-.84v-3.27a1.64,1.64,0,0,1,.77-1.47,3.62,3.62,0,0,1,2-.49h1.39v1.59h-.4a1.46,1.46,0,0,0-1,.28,1.22,1.22,0,0,0-.32,1v2.66c0,.83-.51,1.35-1.52,1.56v0c1,.22,1.52.74,1.52,1.56v2.66a1.24,1.24,0,0,0,.32,1,1.52,1.52,0,0,0,1,.27h.4v1.6h-1.39A3.62,3.62,0,0,1,166.79,143.86Z" fill="#093f68"></path><path d="M121.54,164.47h-1.39v-1.59h.4a1.45,1.45,0,0,0,1-.28,1.22,1.22,0,0,0,.33-1V159c0-.83.5-1.35,1.52-1.56v0c-1-.21-1.52-.73-1.52-1.56v-2.65a1.23,1.23,0,0,0-.33-1,1.5,1.5,0,0,0-1-.27h-.4v-1.6h1.39a3.6,3.6,0,0,1,2,.5,1.63,1.63,0,0,1,.78,1.47v3.26a.93.93,0,0,0,.32.84,2.36,2.36,0,0,0,1.24.22v1.6a2.36,2.36,0,0,0-1.24.22.94.94,0,0,0-.32.84v3.27a1.63,1.63,0,0,1-.78,1.47A3.6,3.6,0,0,1,121.54,164.47Z" fill="#093f68"></path><path d="M121.54,204.84h-1.39v-1.6h.4a1.5,1.5,0,0,0,1-.27,1.24,1.24,0,0,0,.33-1v-2.66c0-.82.5-1.34,1.52-1.56v0c-1-.21-1.52-.73-1.52-1.56v-2.66a1.22,1.22,0,0,0-.33-1,1.45,1.45,0,0,0-1-.28h-.4v-1.6h1.39a3.6,3.6,0,0,1,2,.5,1.63,1.63,0,0,1,.78,1.47v3.26a1,1,0,0,0,.32.85,2.46,2.46,0,0,0,1.24.22v1.59a2.34,2.34,0,0,0-1.24.23.92.92,0,0,0-.32.84v3.26a1.63,1.63,0,0,1-.78,1.47A3.6,3.6,0,0,1,121.54,204.84Z" fill="#093f68"></path><path d="M225,164a1.64,1.64,0,0,1-.77-1.47v-3.27a.94.94,0,0,0-.32-.84,2.38,2.38,0,0,0-1.24-.22v-1.6a2.38,2.38,0,0,0,1.24-.22.93.93,0,0,0,.32-.84v-3.26a1.64,1.64,0,0,1,.77-1.47,3.65,3.65,0,0,1,2-.5h1.4v1.6H228a1.55,1.55,0,0,0-1,.27,1.26,1.26,0,0,0-.32,1v2.65c0,.83-.51,1.35-1.52,1.56v0c1,.21,1.52.73,1.52,1.56v2.66a1.25,1.25,0,0,0,.32,1,1.49,1.49,0,0,0,1,.28h.4v1.59H227A3.65,3.65,0,0,1,225,164Z" fill="#093f68"></path><path d="M229.64,162.88h.4a1.45,1.45,0,0,0,1-.28,1.22,1.22,0,0,0,.33-1V159c0-.83.5-1.35,1.51-1.56v0c-1-.21-1.51-.73-1.51-1.56v-2.65a1.23,1.23,0,0,0-.33-1,1.5,1.5,0,0,0-1-.27h-.4v-1.6H231a3.62,3.62,0,0,1,2,.5,1.62,1.62,0,0,1,.77,1.47v3.26a.94.94,0,0,0,.33.84,2.36,2.36,0,0,0,1.24.22v1.6a2.36,2.36,0,0,0-1.24.22,1,1,0,0,0-.33.84v3.27A1.62,1.62,0,0,1,233,164a3.62,3.62,0,0,1-2,.49h-1.39Z" fill="#093f68"></path><path d="M245.45,164.47h-1.39a3.62,3.62,0,0,1-2-.49,1.62,1.62,0,0,1-.77-1.47v-3.27a1,1,0,0,0-.33-.84,2.36,2.36,0,0,0-1.24-.22v-1.6a2.36,2.36,0,0,0,1.24-.22.94.94,0,0,0,.33-.84v-3.26a1.62,1.62,0,0,1,.77-1.47,3.62,3.62,0,0,1,2-.5h1.39v1.6h-.4a1.5,1.5,0,0,0-1,.27,1.23,1.23,0,0,0-.33,1v2.65c0,.83-.5,1.35-1.51,1.56v0c1,.21,1.51.73,1.51,1.56v2.66a1.22,1.22,0,0,0,.33,1,1.45,1.45,0,0,0,1,.28h.4Z" fill="#093f68"></path><path d="M212.42,160.38H136.79a3,3,0,1,1,0-6h75.63a3,3,0,0,1,0,6Z" fill="#093f68"></path><path d="M121.54,183.75h-1.39v-1.59h.4a1.5,1.5,0,0,0,1-.28,1.22,1.22,0,0,0,.33-1v-2.66c0-.83.5-1.35,1.52-1.56v0c-1-.21-1.52-.73-1.52-1.56v-2.66a1.22,1.22,0,0,0-.33-1,1.5,1.5,0,0,0-1-.28h-.4v-1.59h1.39a3.52,3.52,0,0,1,2,.5,1.63,1.63,0,0,1,.78,1.47v3.26a.94.94,0,0,0,.32.84,2.36,2.36,0,0,0,1.24.22v1.6a2.36,2.36,0,0,0-1.24.22.94.94,0,0,0-.32.84v3.26a1.66,1.66,0,0,1-.78,1.48A3.6,3.6,0,0,1,121.54,183.75Z" fill="#093f68"></path><path d="M217.51,183.26a1.67,1.67,0,0,1-.77-1.48v-3.26a1,1,0,0,0-.32-.84,2.4,2.4,0,0,0-1.25-.22v-1.6a2.4,2.4,0,0,0,1.25-.22,1,1,0,0,0,.32-.84v-3.26a1.64,1.64,0,0,1,.77-1.47,3.54,3.54,0,0,1,2-.5h1.39v1.59h-.4a1.54,1.54,0,0,0-1,.28,1.22,1.22,0,0,0-.32,1v2.66c0,.83-.51,1.35-1.52,1.56v0c1,.21,1.52.73,1.52,1.56v2.66a1.22,1.22,0,0,0,.32,1,1.54,1.54,0,0,0,1,.28h.4v1.59H219.5A3.62,3.62,0,0,1,217.51,183.26Z" fill="#093f68"></path><path d="M222.14,182.16h.39a1.55,1.55,0,0,0,1-.28,1.25,1.25,0,0,0,.32-1v-2.66c0-.83.51-1.35,1.52-1.56v0c-1-.21-1.52-.73-1.52-1.56v-2.66a1.25,1.25,0,0,0-.32-1,1.55,1.55,0,0,0-1-.28h-.39v-1.59h1.39a3.56,3.56,0,0,1,2,.5,1.64,1.64,0,0,1,.77,1.47v3.26a1,1,0,0,0,.32.84,2.4,2.4,0,0,0,1.25.22v1.6a2.4,2.4,0,0,0-1.25.22,1,1,0,0,0-.32.84v3.26a1.67,1.67,0,0,1-.77,1.48,3.65,3.65,0,0,1-2,.49h-1.39Z" fill="#093f68"></path><path d="M238,183.75h-1.4a3.65,3.65,0,0,1-2-.49,1.67,1.67,0,0,1-.77-1.48v-3.26a.94.94,0,0,0-.32-.84,2.38,2.38,0,0,0-1.24-.22v-1.6a2.38,2.38,0,0,0,1.24-.22.94.94,0,0,0,.32-.84v-3.26a1.64,1.64,0,0,1,.77-1.47,3.56,3.56,0,0,1,2-.5H238v1.59h-.4a1.55,1.55,0,0,0-1,.28,1.25,1.25,0,0,0-.32,1v2.66c0,.83-.51,1.35-1.52,1.56v0c1,.21,1.52.73,1.52,1.56v2.66a1.25,1.25,0,0,0,.32,1,1.55,1.55,0,0,0,1,.28h.4Z" fill="#093f68"></path><path d="M204.61,179.66H170.17a3,3,0,0,1,0-6h34.44a3,3,0,0,1,0,6Z" fill="#093f68"></path><path d="M159.14,179.66H136.79a3,3,0,0,1,0-6h22.35a3,3,0,0,1,0,6Z" fill="#093f68"></path><path d="M268.24,91.52c-.64-5,2.21-9.7,4.93-13.93-5.12,4.29-10.35,9.61-10.62,16.28-.19,4.77,2.3,9.35,5.78,12.61,1.9,1.78,4.08,3.25,5.85,5.15,4.63,5,4.42,10.73,3.6,16.94,4.12-5.21,6.14-13.33,2.69-19.24C276.88,103.18,269.21,99.08,268.24,91.52Z" fill="#f56132"></path><path d="M277.78,129.57a1.09,1.09,0,0,1-.39-.08,1,1,0,0,1-.6-1.05c.76-5.77,1.09-11.35-3.34-16.13a32.62,32.62,0,0,0-3.3-3c-.83-.68-1.69-1.39-2.5-2.15-4.07-3.82-6.29-8.69-6.1-13.38.3-7.19,6-12.86,11-17a1,1,0,0,1,1.31,0,1,1,0,0,1,.17,1.29c-2.84,4.42-5.35,8.76-4.78,13.26h0c.56,4.39,3.57,7.55,6.75,10.89a36.69,36.69,0,0,1,5.35,6.54c3.89,6.67,1.29,15.23-2.77,20.37A1,1,0,0,1,277.78,129.57ZM269,82.84c-3,3.19-5.27,6.84-5.44,11.07s1.83,8.42,5.47,11.84c.76.72,1.59,1.4,2.4,2.06a35.43,35.43,0,0,1,3.5,3.14c3.83,4.14,4.52,8.82,4.28,13.49,2.23-4.55,3-10.24.4-14.61a34.15,34.15,0,0,0-5.07-6.17c-3.26-3.43-6.64-7-7.28-12h0A15.66,15.66,0,0,1,269,82.84Z" fill="#093f68"></path><path d="M287.84,118.89c.91-1.81,1.68-3.67,1.43-5.5-.47-3.37-4.41-5.22-5.77-8.2a9.11,9.11,0,0,1-.12-6.6,18.2,18.2,0,0,1,3.48-5.76c-1.56,1.82-1.45,4.61-.43,6.79s2.76,3.89,4.36,5.68,3.12,3.79,3.53,6.16c.57,3.37-1.86,7-3.8,9.62a39.2,39.2,0,0,0-2.43,3.21,8.63,8.63,0,0,0-.85,6.68c-2.09-1.73-2.28-4.93-1.5-7.53A31.79,31.79,0,0,1,287.84,118.89Z" fill="#f56132"></path><path d="M287.24,132a1,1,0,0,1-.63-.23c-2.6-2.15-2.61-6-1.83-8.58a22,22,0,0,1,1.62-3.65c.19-.35.37-.71.55-1.06h0c.82-1.64,1.54-3.36,1.33-4.92s-1.48-2.88-2.81-4.23a13.73,13.73,0,0,1-2.88-3.69,10,10,0,0,1-.16-7.34,19,19,0,0,1,3.57-6,.52.52,0,0,1,.1-.11,1,1,0,1,1,1.52,1.29l-.07.09c-1.25,1.54-1,3.93-.22,5.63a19.35,19.35,0,0,0,3.45,4.61l.75.83c1.61,1.81,3.32,4,3.77,6.66.62,3.59-1.66,7.27-4,10.38-.3.41-.62.8-.94,1.18a17.74,17.74,0,0,0-1.44,2,7.58,7.58,0,0,0-.74,5.89,1,1,0,0,1-1,1.28Zm1.5-12.63-.56,1.09a20.62,20.62,0,0,0-1.49,3.3,9.39,9.39,0,0,0-.36,2.12,9.27,9.27,0,0,1,.9-2.07,19.34,19.34,0,0,1,1.61-2.19c.3-.37.6-.73.88-1.11,2.06-2.78,4.1-6,3.61-8.86-.37-2.15-1.87-4.06-3.29-5.65-.24-.28-.49-.55-.74-.82a20.92,20.92,0,0,1-3.78-5.11,9.59,9.59,0,0,1-.73-2.3,11.33,11.33,0,0,0-.46,1.17,8.15,8.15,0,0,0,.08,5.87,12,12,0,0,0,2.48,3.11c1.5,1.53,3.06,3.1,3.37,5.36.29,2.11-.56,4.17-1.52,6.09Z" fill="#093f68"></path><rect x="166.66" y="197.07" width="119" height="34.98" rx="3.67" fill="#fff"></rect><path d="M282,233.05H170.33a4.68,4.68,0,0,1-4.67-4.68V200.74a4.68,4.68,0,0,1,4.67-4.67H282a4.68,4.68,0,0,1,4.67,4.67v27.63A4.68,4.68,0,0,1,282,233.05Zm-111.66-35a2.68,2.68,0,0,0-2.67,2.67v27.63a2.68,2.68,0,0,0,2.67,2.68H282a2.68,2.68,0,0,0,2.67-2.68V200.74a2.68,2.68,0,0,0-2.67-2.67Z" fill="#093f68"></path><path d="M204.75,218.57a6.63,6.63,0,0,1-.36,2.17,5.28,5.28,0,0,1-1.08,1.85,5,5,0,0,1-1.79,1.26,6.23,6.23,0,0,1-2.5.47,6.14,6.14,0,0,1-3.7-1,5.19,5.19,0,0,1-1.89-3.33l3.17-.76a2.64,2.64,0,0,0,.77,1.51,2.08,2.08,0,0,0,1.49.56,2,2,0,0,0,2-1,5.76,5.76,0,0,0,.52-2.7V204.79h3.39Z" fill="#093f68"></path><path d="M215,204.79H218l8.2,19.05h-3.87l-1.78-4.36h-8.25l-1.73,4.36h-3.79Zm4.3,11.79-2.93-7.75-3,7.75Z" fill="#093f68"></path><path d="M224.41,204.79h3.9l5.19,14.39,5.36-14.39h3.65l-7.69,19.05h-2.93Z" fill="#093f68"></path><path d="M249.24,204.79h2.93l8.2,19.05H256.5l-1.78-4.36h-8.25l-1.73,4.36H241Zm4.3,11.79-2.93-7.75-3,7.75Z" fill="#093f68"></path><path d="M253.36,101.84H178.83l-4.55-7.39a8.3,8.3,0,0,0-7.05-3.93H118.4a8.28,8.28,0,0,0-8.28,8.28v3h-6.66c-4,0-7.25,3.72-7.25,8.29v8.64h164.4v-8.64C260.61,105.56,257.36,101.84,253.36,101.84Z" fill="#fff"></path><path d="M260.62,119.77H96.21a1,1,0,0,1-1-1v-8.64c0-5.12,3.7-9.29,8.25-9.29h5.66v-2a9.29,9.29,0,0,1,9.28-9.28h48.83a9.21,9.21,0,0,1,7.9,4.41l4.26,6.91h74c4.55,0,8.26,4.17,8.26,9.29v8.64A1,1,0,0,1,260.62,119.77Zm-163.41-2H259.62v-7.64c0-4-2.81-7.29-6.26-7.29H178.83a1,1,0,0,1-.85-.48L173.43,95a7.23,7.23,0,0,0-6.2-3.46H118.4a7.29,7.29,0,0,0-7.28,7.28v3a1,1,0,0,1-1,1h-6.66c-3.45,0-6.25,3.27-6.25,7.29Z" fill="#093f68"></path><circle cx="127.77" cy="104.65" r="3.87" fill="#f56132"></circle><path d="M127.77,109.52a4.87,4.87,0,1,1,4.87-4.87A4.88,4.88,0,0,1,127.77,109.52Zm0-7.74a2.87,2.87,0,1,0,2.87,2.87A2.87,2.87,0,0,0,127.77,101.78Z" fill="#093f68"></path><circle cx="143.4" cy="104.65" r="3.87" fill="#ffbc0e"></circle><path d="M143.4,109.52a4.87,4.87,0,1,1,4.87-4.87A4.88,4.88,0,0,1,143.4,109.52Zm0-7.74a2.87,2.87,0,1,0,2.87,2.87A2.87,2.87,0,0,0,143.4,101.78Z" fill="#093f68"></path><circle cx="159.03" cy="104.65" r="3.87" fill="#70cc40"></circle><path d="M159,109.52a4.87,4.87,0,1,1,4.87-4.87A4.88,4.88,0,0,1,159,109.52Zm0-7.74a2.87,2.87,0,1,0,2.87,2.87A2.87,2.87,0,0,0,159,101.78Z" fill="#093f68"></path></g></svg>