<svg id="Layer_1" enable-background="new 0 0 512 512" height="512" viewBox="0 0 512 512" width="512" xmlns="http://www.w3.org/2000/svg"><path d="m476.84 128.5c-12.361-21.407-37.619-30.608-69.902-30.692-42.585-.112-97.39 15.641-150.938 40.157-17.805 8.152-35.469 17.269-52.5 27.098-57.041 32.929-105.996 72.407-137.871 111.137-35.024 42.568-45.835 80.669-30.469 107.3 12.422 21.519 37.866 30.703 70.371 30.703 42.515 0 97.121-15.727 150.469-40.159 17.805-8.154 35.469-17.276 52.5-27.107 57.041-32.93 105.996-72.407 137.871-111.138 35.025-42.568 45.835-80.668 30.469-107.299zm-53.628 88.242c-29.648 36.021-75.718 73.037-129.712 104.209-12.675 7.319-25.157 13.751-37.5 19.772-57.746 28.169-110.72 42.464-147.197 43.347-24.342.59-41.375-4.693-47.657-15.569-8.423-14.575 1.919-41.953 27.642-73.242 29.648-36.021 75.718-73.037 129.712-104.209 12.675-7.317 25.155-13.744 37.5-19.764 59.685-29.11 114.272-43.4 150.82-43.4 22.412 0 38.071 5.288 44.033 15.615 8.423 14.574-1.918 41.952-27.641 73.241z" fill="#f0bc5e"/><path d="m446.371 235.8c35.024-42.568 45.835-80.669 30.469-107.3-12.361-21.407-37.619-30.608-69.902-30.692-42.585-.112-97.39 15.641-150.938 40.157v33.32c59.685-29.11 114.272-43.4 150.82-43.4 22.412 0 38.071 5.288 44.033 15.615 8.423 14.575-1.919 41.953-27.642 73.242-29.648 36.021-75.718 73.037-129.712 104.209-12.675 7.319-25.157 13.751-37.5 19.772v33.322c17.805-8.154 35.469-17.276 52.5-27.107 57.042-32.93 105.997-72.408 137.872-111.138z" fill="#f0bc5e"/><path d="m446.371 276.2c-31.875-38.73-80.83-78.208-137.871-111.138-17.029-9.831-34.695-18.944-52.5-27.096-53.943-24.701-109.167-40.51-151.888-40.153-31.822.266-56.704 9.494-68.952 30.687-15.366 26.631-4.556 64.731 30.469 107.3 31.875 38.73 80.83 78.208 137.871 111.138 17.031 9.831 34.695 18.953 52.5 27.107 53.348 24.432 107.953 40.159 150.469 40.159 32.505 0 57.949-9.185 70.371-30.703 15.366-26.632 4.556-64.732-30.469-107.301zm4.483 92.3c-6.108 10.6-22.436 15.886-45.798 15.602-36.526-.443-90.328-14.74-149.055-43.385-12.345-6.021-24.825-12.448-37.5-19.766-53.994-31.172-100.063-68.188-129.712-104.209-25.723-31.289-36.064-58.667-27.642-73.242 5.962-10.327 21.621-15.615 44.033-15.615 36.546 0 91.141 14.288 150.82 43.398 12.345 6.021 24.825 12.448 37.5 19.766 53.994 31.172 100.063 68.188 129.712 104.209 25.723 31.289 36.064 58.667 27.642 73.242z" fill="#f0bc5e"/><path d="m476.84 383.5c15.366-26.631 4.556-64.731-30.469-107.3-31.875-38.73-80.83-78.208-137.871-111.138-17.029-9.831-34.695-18.944-52.5-27.096v33.316c12.345 6.021 24.825 12.448 37.5 19.766 53.994 31.172 100.063 68.188 129.712 104.209 25.723 31.289 36.064 58.667 27.642 73.242-6.108 10.6-22.436 15.886-45.798 15.602-36.526-.443-90.328-14.74-149.055-43.385v33.327c53.348 24.432 107.953 40.159 150.469 40.159 32.504.001 57.948-9.183 70.37-30.702z" fill="#f0bc5e"/><path d="m256 0c-68.203 0-105 132.382-105 256s36.797 256 105 256 105-132.382 105-256-36.797-256-105-256zm0 482c-35.405 0-75-97.226-75-226s39.595-226 75-226 75 97.226 75 226-39.595 226-75 226z" fill="#f0bc5e"/><path d="m361 256c0-123.618-36.797-256-105-256v30c35.405 0 75 97.226 75 226s-39.595 226-75 226v30c68.203 0 105-132.382 105-256z" fill="#f0bc5e"/><path d="m256 211c-24.814 0-45 20.186-45 45s20.186 45 45 45 45-20.186 45-45-20.186-45-45-45z" fill="#000000"/><path d="m301 256c0-24.814-20.186-45-45-45v90c24.814 0 45-20.186 45-45z" fill="#000000"/></svg>